<?xml version="1.0" encoding="utf-8"?>
<!-- Generator: Adobe Illustrator 27.0.0, SVG Export Plug-In . SVG Version: 6.00 Build 0)  -->
<svg version="1.1" id="Layer_1" xmlns="http://www.w3.org/2000/svg" xmlns:xlink="http://www.w3.org/1999/xlink" x="0px" y="0px"
	 viewBox="0 0 574.3 97.7" style="enable-background:new 0 0 574.3 97.7;" xml:space="preserve">
<g>
	<g>
		<g>
			<path d="M13.7,78.2C9.8,76,6.6,72.9,4.3,69C2,65.1,0.8,60.6,0.8,55.7S2,46.4,4.3,42.5s5.4-7,9.4-9.2c3.9-2.2,8.3-3.3,13-3.3
				c4.8,0,9.1,1.1,13,3.3s7,5.3,9.3,9.2s3.4,8.3,3.4,13.2c0,5-1.1,9.4-3.4,13.3c-2.3,3.9-5.4,7-9.4,9.2c-3.9,2.2-8.3,3.3-13,3.3
				C22,81.5,17.7,80.4,13.7,78.2z M34.7,70.4c2.3-1.4,4.1-3.3,5.4-5.9c1.3-2.6,1.9-5.5,1.9-8.9s-0.6-6.3-1.9-8.8
				c-1.3-2.5-3.1-4.5-5.4-5.8c-2.3-1.3-5-2-8-2s-5.7,0.7-8.1,2c-2.3,1.3-4.2,3.3-5.5,5.8c-1.3,2.5-1.9,5.5-1.9,8.8
				c0,3.4,0.6,6.3,1.9,8.9c1.3,2.6,3.1,4.5,5.5,5.9c2.3,1.4,5,2.1,8.1,2.1C29.7,72.5,32.4,71.8,34.7,70.4z"/>
			<path d="M70.9,42.2c2.3-1.2,4.9-1.8,7.8-1.8c3.4,0,6.5,0.8,9.3,2.5s5,4.1,6.6,7.2c1.6,3.1,2.4,6.7,2.4,10.8s-0.8,7.7-2.4,10.9
				C93,75,90.8,77.4,88,79.1c-2.8,1.7-5.9,2.6-9.3,2.6c-2.9,0-5.5-0.6-7.8-1.8c-2.2-1.2-4.1-2.7-5.5-4.5v21.3h-10V41h10.1v5.8
				C66.9,44.9,68.6,43.4,70.9,42.2z M85.2,54.6c-1-1.8-2.3-3.1-3.9-4s-3.4-1.4-5.2-1.4c-1.8,0-3.6,0.5-5.2,1.4S68,52.9,67,54.7
				s-1.5,3.9-1.5,6.3s0.5,4.5,1.5,6.3s2.3,3.1,3.9,4.1c1.6,0.9,3.3,1.4,5.2,1.4c1.9,0,3.6-0.5,5.2-1.4c1.6-1,2.9-2.3,3.9-4.1
				c1-1.8,1.5-3.9,1.5-6.4S86.2,56.4,85.2,54.6z"/>
			<path d="M139.5,64h-29.2c0.2,2.9,1.3,5.2,3,6.8c1.8,1.6,4,2.5,6.6,2.5c3.8,0,6.4-1.6,8-4.8h10.9c-1.2,3.9-3.4,7-6.6,9.5
				c-3.3,2.5-7.3,3.7-12.1,3.7c-3.9,0-7.3-0.9-10.4-2.6s-5.4-4.1-7.1-7.3c-1.7-3.1-2.6-6.7-2.6-10.8c0-4.1,0.8-7.8,2.5-10.9
				c1.7-3.1,4-5.5,7.1-7.2c3-1.7,6.5-2.5,10.5-2.5c3.8,0,7.2,0.8,10.2,2.5c3,1.6,5.3,4,7,7s2.5,6.5,2.5,10.4
				C139.8,61.6,139.7,62.9,139.5,64z M129.3,57.2c0-2.6-1-4.7-2.8-6.2c-1.8-1.6-4.1-2.3-6.7-2.3c-2.5,0-4.6,0.8-6.3,2.3
				c-1.7,1.5-2.8,3.6-3.1,6.3L129.3,57.2L129.3,57.2z"/>
			<path d="M177.4,44.9c2.9,3,4.4,7.2,4.4,12.6V81h-10.1V58.9c0-3.2-0.8-5.6-2.4-7.3c-1.6-1.7-3.8-2.6-6.5-2.6c-2.8,0-5,0.9-6.6,2.6
				c-1.6,1.7-2.4,4.2-2.4,7.3V81h-10.1V41h10.1v5c1.3-1.7,3.1-3.1,5.2-4.1c2.1-1,4.4-1.5,6.9-1.5C170.6,40.4,174.5,41.9,177.4,44.9z
				"/>
			<path d="M235.3,53.8c-1.3,2.4-3.3,4.3-6,5.7s-6.1,2.2-10.3,2.2h-8.4V81h-10.1V30.6h18.6c3.9,0,7.2,0.7,10,2
				c2.7,1.3,4.8,3.2,6.2,5.6c1.4,2.4,2.1,5,2.1,8C237.2,48.9,236.6,51.4,235.3,53.8z M224.8,51.6c1.3-1.3,2-3.1,2-5.4
				c0-4.9-2.7-7.4-8.2-7.4h-8v14.7h8C221.4,53.5,223.5,52.9,224.8,51.6z"/>
			<path d="M294.7,42.2c2.2-1.2,4.5-1.8,7.2-1.8v10.2h-2.7c-3.2,0-5.6,0.7-7.2,2.2s-2.4,4.5-2.4,8.2v20h-10.1V41h10.1v5.8
				C290.9,44.7,292.5,43.3,294.7,42.2z"/>
			<path d="M322,50.6v18c0,1.3,0.3,2.3,1,2.9s1.7,0.9,3.3,0.9h3.8V81h-5.5c-8.5,0-12.8-4.1-12.8-12.4v-18h-6.9V41h2.4
				c2.7,0,4.9-2.2,4.9-4.9v-5.5h9.8V41h8.1v9.6H322z"/>
			<path d="M367.9,44.9c2.9,3,4.4,7.2,4.4,12.6V81h-10.1V58.9c0-3.2-0.8-5.6-2.4-7.3S356,49,353.3,49c-2.8,0-5,0.9-6.6,2.6
				c-1.6,1.7-2.4,4.2-2.4,7.3V81h-10.1V41h10.1v5c1.3-1.7,3.1-3.1,5.2-4.1s4.4-1.5,6.9-1.5C361.1,40.4,364.9,41.9,367.9,44.9z"/>
			<path d="M415.2,64H386c0.2,2.9,1.3,5.2,3,6.8c1.8,1.6,4,2.5,6.6,2.5c3.8,0,6.4-1.6,8-4.8h10.9c-1.2,3.9-3.4,7-6.6,9.5
				c-3.3,2.5-7.3,3.7-12.1,3.7c-3.9,0-7.3-0.9-10.4-2.6s-5.4-4.1-7.1-7.3c-1.7-3.1-2.6-6.7-2.6-10.8c0-4.1,0.8-7.8,2.5-10.9
				c1.7-3.1,4-5.5,7.1-7.2c3-1.7,6.5-2.5,10.5-2.5c3.8,0,7.2,0.8,10.2,2.5c3,1.6,5.3,4,7,7s2.5,6.5,2.5,10.4
				C415.5,61.6,415.4,62.9,415.2,64z M405,57.2c0-2.6-1-4.7-2.8-6.2c-1.8-1.6-4.1-2.3-6.7-2.3c-2.5,0-4.6,0.8-6.3,2.3
				c-1.7,1.5-2.8,3.6-3.1,6.3L405,57.2L405,57.2z"/>
			<path d="M434.6,42.2c2.1-1.2,4.5-1.8,7.2-1.8V51h-2.7c-3.2,0-5.6,0.7-7.2,2.2s-2.4,4.1-2.4,7.8v20h-10.1V41h10.1v6.2
				C430.8,45.1,432.5,43.4,434.6,42.2z"/>
			<path d="M452.7,79.9c-2.6-1.2-4.7-2.8-6.2-4.8s-2.3-4.3-2.5-6.7h10.2c0.2,1.5,0.9,2.8,2.3,3.8c1.3,1,3,1.5,4.9,1.5
				s3.4-0.4,4.5-1.2c1.1-0.8,1.6-1.8,1.6-3c0-1.3-0.7-2.3-2-2.9c-1.3-0.7-3.4-1.4-6.3-2.1c-3-0.7-5.4-1.5-7.3-2.2
				c-1.9-0.8-3.5-1.9-4.9-3.5s-2.1-3.7-2.1-6.4c0-2.2,0.6-4.2,1.9-6.1c1.3-1.8,3.1-3.3,5.5-4.3c2.4-1.1,5.2-1.6,8.4-1.6
				c4.8,0,8.6,1.2,11.4,3.6c2.8,2.4,4.4,5.6,4.7,9.6h-9.7c-0.1-1.6-0.8-2.9-2-3.8c-1.2-0.9-2.8-1.4-4.7-1.4c-1.8,0-3.2,0.3-4.2,1
				s-1.5,1.6-1.5,2.8c0,1.3,0.7,2.4,2,3.1c1.3,0.7,3.4,1.4,6.3,2.1s5.3,1.5,7.1,2.2c1.9,0.8,3.5,2,4.9,3.6c1.4,1.6,2.1,3.7,2.1,6.4
				c0,2.3-0.6,4.4-1.9,6.2c-1.3,1.8-3.1,3.3-5.5,4.3s-5.2,1.6-8.3,1.6C458.2,81.7,455.3,81.1,452.7,79.9z"/>
			<path d="M272.3,48.4c-1.5-2.6-3.7-4.6-6.4-6c-2.7-1.4-5.8-2.1-9.1-2.1c-3.3,0-6.2,0.6-8.8,1.9c-2.6,1.3-4.7,3.1-6.4,5.3
				c-1.3,1.8-2.2,3.8-2.7,6h10.3c0.5-1.2,1.2-2.2,2.1-2.9c1.4-1.1,3.2-1.7,5.3-1.7c2.4,0,4.3,0.8,5.7,2.3c1.4,1.5,2.1,3.6,2.2,6.1
				h-10.2c-5.5,0-9.7,1.2-12.5,3.5c-2.8,2.4-4.2,5.4-4.2,9.1c0,2.3,0.6,4.4,1.7,6.1c1.2,1.8,2.7,3.2,4.8,4.2c2,1,4.3,1.5,6.8,1.5
				c2.9,0,5.6-0.6,8.1-1.8c2.5-1.2,4.3-2.8,5.4-4.6V81h10.3V57.5C274.6,54,273.9,51,272.3,48.4z M264.4,64.1c0,2-0.5,3.7-1.6,5.1
				s-2.4,2.5-4,3.2s-3.3,1.1-4.9,1.1c-1.9,0-3.3-0.4-4.4-1.3c-1-0.9-1.6-2-1.6-3.5s0.6-2.7,1.7-3.6s2.9-1.4,5.2-1.4h9.6L264.4,64.1
				L264.4,64.1z"/>
		</g>
		<g>
			<circle cx="554.5" cy="18.8" r="1.6"/>
			<polygon points="573.7,2 563.9,10.3 573.7,6 			"/>
			<polygon points="566.7,1 562.9,9.5 570.7,1 			"/>
			<path d="M569.1,11L559,14.3c1.2,1.2,1.9,2.9,1.9,4.5V41c0,7-2.7,13.9-8,19.2c-5.3,5.3-12.3,8-19.2,8c-6,0-11.9-2-16.8-5.8
				l2.3-2.3c9.4,7.2,22.9,6.5,31.5-2.1c4.7-4.7,7-10.8,7-17c0-0.9-0.7-1.6-1.6-1.6c-0.9,0-1.6,0.7-1.6,1.6c0,5.3-2,10.6-6.1,14.7
				c-7.4,7.4-18.8,8-27,2.1l23.7-23.7c3.7-3.7,3.7-9.8,0-13.6c-0.2-0.2-0.5-0.4-0.7-0.7l0,0l5.6-5.6c1.2-1.2,2.9-1.9,4.5-1.9
				s3.3,0.6,4.5,1.9l3.2-9.9L557,9.5c-0.8-0.2-1.6-0.3-2.5-0.3c-2.5,0-4.9,0.9-6.8,2.8l-8.8,8.8c0.5,0.1,1.1,0.3,1.6,0.5
				c0.9,0.3,1.7,0.8,2.4,1.5c2.5,2.5,2.5,6.6,0,9.1L493.7,81h4.5l16.4-16.4l0,0c4.5,3.6,10,6,16,6.6l-4,9.8h3.5l4-9.6
				c1.2,0,2.4-0.1,3.6-0.2l-4.2,9.8h3.5l4.4-10.6c13.1-3.4,22.8-15.3,22.8-29.5l0,0V18.8c0-0.8-0.1-1.7-0.3-2.5l0.9-0.9L569.1,11z"
				/>
		</g>
	</g>
</g>
</svg>
